<?xml version="1.0" encoding="UTF-8"?>
<svg version="1.1" xmlns="http://www.w3.org/2000/svg" width="2000" height="382">
<path d="M0 0 C0.84390289 0.00304138 1.68780579 0.00608276 2.55728149 0.00921631 C23.87351178 0.12222249 43.65511014 3.44138464 63.8125 10.4375 C64.47507812 10.66663086 65.13765625 10.89576172 65.8203125 11.13183594 C89.68775353 19.59102671 113.50361916 33.79336264 130.8125 52.4375 C132.0190625 53.6440625 132.0190625 53.6440625 133.25 54.875 C134.095625 55.720625 134.94125 56.56625 135.8125 57.4375 C136.38484375 57.97503906 136.9571875 58.51257812 137.546875 59.06640625 C148.28418765 69.35275177 156.31396691 81.68936467 163.8125 94.4375 C164.17085938 95.04287598 164.52921875 95.64825195 164.8984375 96.27197266 C189.30781742 138.05927108 193.80657767 189.6261987 182.125 236.0625 C174.27571285 265.43362713 159.80664998 290.72114181 139.8125 313.4375 C139.16410156 314.20835937 138.51570313 314.97921875 137.84765625 315.7734375 C133.86508666 320.48749946 129.53984021 324.48180467 124.8125 328.4375 C123.93851562 329.19933594 123.06453125 329.96117187 122.1640625 330.74609375 C91.89322257 356.75629267 51.45260045 374.4130145 11.16796875 374.640625 C10.35870438 374.64632507 9.54944 374.65202515 8.71565247 374.65789795 C7.00714398 374.66729274 5.29861782 374.67385979 3.59008789 374.67773438 C1.04473797 374.68733132 -1.49976449 374.71836164 -4.04492188 374.75 C-18.9275505 374.84639627 -33.50653697 373.11849308 -47.875 369.125 C-48.65278809 368.91335205 -49.43057617 368.7017041 -50.23193359 368.48364258 C-81.28462643 359.7890151 -107.96708459 343.60244198 -131.1875 321.4375 C-132.04085937 320.63699219 -132.89421875 319.83648437 -133.7734375 319.01171875 C-162.97481656 290.86969572 -181.54900002 250.51198242 -186.1875 210.4375 C-186.29835937 209.55191406 -186.40921875 208.66632813 -186.5234375 207.75390625 C-191.67618528 158.66353886 -177.47879732 109.23283886 -146.7890625 70.59765625 C-142.4986464 65.31676881 -137.87946529 60.36066358 -133.1875 55.4375 C-132.42179687 54.60734375 -131.65609375 53.7771875 -130.8671875 52.921875 C-120.00415613 41.5064861 -106.85174579 32.20052042 -93.1875 24.4375 C-92.06601563 23.78394531 -90.94453125 23.13039063 -89.7890625 22.45703125 C-76.56209598 14.93980832 -62.22877551 9.59182821 -47.5625 5.625 C-46.89702148 5.44235596 -46.23154297 5.25971191 -45.54589844 5.0715332 C-30.52554428 1.26367995 -15.45144011 -0.1193517 0 0 Z " fill="#4FBF8B" transform="translate(205.1875,3.5625)"/>
<path d="M0 0 C6.26484361 5.09879827 9.93313489 11.20137309 13.62109375 18.31640625 C16.17829615 15.80923607 18.56991238 13.24633356 20.87109375 10.50390625 C31.31777102 -1.37533225 43.19359356 -7.48858969 59.03515625 -8.8984375 C71.5415764 -9.40765656 83.45984383 -6.15181948 92.80078125 2.28515625 C105.32691549 15.33124323 108.79960196 32.38138005 108.73461914 49.84155273 C108.73476517 50.8764534 108.73491119 51.91135406 108.73506165 52.97761536 C108.73436782 56.38093194 108.72660027 59.78419304 108.71875 63.1875 C108.71688394 65.55404124 108.71546092 67.92058287 108.71446228 70.28712463 C108.71065193 76.50297113 108.70083431 82.71879411 108.6897583 88.93463135 C108.6795123 95.28258954 108.67495783 101.63055154 108.66992188 107.97851562 C108.6592107 120.42449114 108.64162591 132.87044306 108.62109375 145.31640625 C94.76109375 145.31640625 80.90109375 145.31640625 66.62109375 145.31640625 C66.59921997 140.76013428 66.59921997 140.76013428 66.5769043 136.11181641 C66.5264705 126.05347032 66.45985984 115.99527761 66.38537884 105.93708229 C66.34073336 99.8413692 66.30146426 93.74572206 66.2746582 87.64990234 C66.24856738 81.76237848 66.20812374 75.87510916 66.15790749 69.98774338 C66.14127789 67.74642488 66.12973937 65.5050624 66.12347984 63.26369095 C66.11379635 60.11383906 66.08568577 56.96463269 66.0534668 53.81494141 C66.05490189 52.89711884 66.05633698 51.97929626 66.05781555 51.03366089 C65.93724905 42.6486241 64.3992935 33.71927624 58.62109375 27.31640625 C53.54683226 24.04579221 48.22545493 23.84944825 42.36328125 24.62890625 C35.59976588 26.32460241 31.07693423 30.09450362 27.30859375 35.87890625 C21.34813637 46.85608192 19.51058549 58.53211459 19.41577148 70.84375 C19.40587189 71.65446457 19.39597229 72.46517914 19.38577271 73.30046082 C19.35445563 75.95158068 19.32951952 78.6027184 19.3046875 81.25390625 C19.28409217 83.10335731 19.26309506 84.95280394 19.24171448 86.80224609 C19.18676002 91.64858387 19.13723433 96.49496223 19.08886719 101.34136963 C19.02957936 107.16771339 18.96349919 112.99398366 18.8985672 118.82026672 C18.80089315 127.652268 18.71180794 136.4843184 18.62109375 145.31640625 C4.76109375 145.31640625 -9.09890625 145.31640625 -23.37890625 145.31640625 C-23.39348877 142.34995117 -23.40807129 139.38349609 -23.4230957 136.32714844 C-23.47358161 126.4923323 -23.54020111 116.65767216 -23.61462116 106.82300949 C-23.6592228 100.86411662 -23.69850129 94.90529051 -23.7253418 88.94628906 C-23.75147671 83.18843095 -23.79195074 77.43083117 -23.84209251 71.67313385 C-23.85869253 69.48370849 -23.87024932 67.29423852 -23.87652016 65.10475922 C-23.0795677 44.89530486 -23.0795677 44.89530486 -31.79296875 27.58984375 C-35.89317997 24.29755592 -39.6808697 24.1619902 -44.75390625 24.37890625 C-52.13461477 25.26018488 -56.93378759 28.23935442 -61.62890625 33.94140625 C-71.01735506 47.53934978 -70.69333061 64.16677188 -70.79296875 79.984375 C-70.81170914 81.87438271 -70.83128462 83.76438231 -70.85165405 85.65437317 C-70.90267828 90.59436224 -70.94246177 95.53437835 -70.97979736 100.4744873 C-71.02711524 106.42024799 -71.08858413 112.36587765 -71.14764404 118.31153107 C-71.23549347 127.31310237 -71.30551715 136.31465319 -71.37890625 145.31640625 C-85.23890625 145.31640625 -99.09890625 145.31640625 -113.37890625 145.31640625 C-113.37890625 95.81640625 -113.37890625 46.31640625 -113.37890625 -4.68359375 C-100.17890625 -4.68359375 -86.97890625 -4.68359375 -73.37890625 -4.68359375 C-73.04890625 1.91640625 -72.71890625 8.51640625 -72.37890625 15.31640625 C-71.38890625 13.97578125 -70.39890625 12.63515625 -69.37890625 11.25390625 C-52.87786836 -9.81054493 -22.31973187 -15.79606639 0 0 Z " fill="#423B3B" transform="translate(1454.37890625,131.68359375)"/>
<path d="M0 0 C12.82074458 10.78055376 17.68160512 25.45070911 19.1875 41.75 C19.76984818 53.79791802 19.66514671 65.88050701 19.69281006 77.93981934 C19.70433375 82.4544939 19.72779451 86.96879329 19.76750183 91.4833107 C19.78103301 93.58350794 19.77691597 95.68319341 19.77209473 97.78341675 C19.78220581 99.04968903 19.79231689 100.3159613 19.80273438 101.62060547 C19.80478882 102.73515106 19.80684326 103.84969666 19.80895996 104.99801636 C19.95647827 108.12313265 19.95647827 108.12313265 23.1875 110.75 C26.4875 111.08 29.7875 111.41 33.1875 111.75 C33.1875 121.98 33.1875 132.21 33.1875 142.75 C27.12375 142.8428125 27.12375 142.8428125 20.9375 142.9375 C19.68936523 142.96481201 18.44123047 142.99212402 17.15527344 143.02026367 C6.96010169 143.09473359 -5.03965979 142.15666786 -12.8125 134.75 C-15.41334245 131.22419254 -17.67163322 127.57010916 -19.8125 123.75 C-20.39644531 124.60271484 -20.39644531 124.60271484 -20.9921875 125.47265625 C-28.92239832 136.41780897 -40.41830707 143.44881677 -53.8125 145.75 C-72.1017817 147.02816939 -89.62391801 146.15231657 -104.8125 134.75 C-114.04742792 126.37478008 -118.7741522 117.16297598 -119.8125 104.75 C-120.06454623 91.79762435 -117.23024337 80.80697275 -108.80859375 70.7734375 C-95.5750402 57.35860239 -74.13171699 50.86599875 -55.52954102 50.63647461 C-53.9584872 50.63663069 -52.38742698 50.64214535 -50.81640625 50.65234375 C-49.98286118 50.6537587 -49.1493161 50.65517365 -48.29051208 50.65663147 C-45.65197014 50.66218832 -43.01351591 50.6747326 -40.375 50.6875 C-38.57617311 50.69252058 -36.77734487 50.69708251 -34.97851562 50.70117188 C-30.58981042 50.71214357 -26.20117004 50.72937804 -21.8125 50.75 C-22.20454656 47.55897587 -22.63059525 44.37335411 -23.0625 41.1875 C-23.22685547 39.84461914 -23.22685547 39.84461914 -23.39453125 38.47460938 C-24.36094861 31.53166359 -26.08475999 26.63361087 -31 21.4375 C-37.77964922 17.36971047 -45.19657543 17.06712635 -52.8125 18.75 C-58.6427139 20.71718756 -62.33561291 23.58433918 -65.8125 28.75 C-67.82548195 33.03706197 -68.88014517 37.08822585 -69.8125 41.75 C-83.6725 39.44 -97.5325 37.13 -111.8125 34.75 C-113.29199127 27.35254366 -110.28193478 21.75522025 -106.38671875 15.4375 C-104.94584565 13.44901745 -103.43264384 11.59471824 -101.8125 9.75 C-101.31234375 9.15703125 -100.8121875 8.5640625 -100.296875 7.953125 C-78.18718579 -16.30313598 -26.0540363 -18.916544 0 0 Z M-69.8125 83.75 C-73.99687237 88.8642329 -76.19262113 93.84771568 -76.09375 100.55859375 C-75.43768062 105.67046771 -73.01423629 109.57907746 -69.375 113.125 C-62.45718552 117.51190674 -55.82353307 117.44474698 -47.8125 116.75 C-38.89714667 114.703672 -32.68306082 110.89795857 -27.625 103.1875 C-22.42188511 93.98303955 -21.62549373 85.11961293 -21.8125 74.75 C-47.29616857 73.41240395 -47.29616857 73.41240395 -69.8125 83.75 Z " fill="#423B3B" transform="translate(1707.8125,134.25)"/>
<path d="M0 0 C15.51 0 31.02 0 47 0 C50.20963597 9.91624676 53.41849062 19.8327423 56.625 29.75 C56.86243801 30.4843565 57.09987602 31.218713 57.34450912 31.97532272 C65.63754525 57.62663984 73.86523789 83.29799067 82 109 C83.80757958 106.28863064 84.65191957 104.36477685 85.62548828 101.31225586 C85.93462158 100.35097275 86.24375488 99.38968964 86.56225586 98.39927673 C86.89491455 97.34841385 87.22757324 96.29755096 87.5703125 95.21484375 C87.92407959 94.11028336 88.27784668 93.00572296 88.64233398 91.86769104 C89.80763807 88.22568858 90.96632256 84.58161554 92.125 80.9375 C92.92778356 78.42433886 93.73101059 75.91131934 94.53466797 73.3984375 C96.19505214 68.20511324 97.85244993 63.0108449 99.5078125 57.81591797 C102.25628806 49.19136814 105.01667692 40.5706438 107.77832031 31.95030212 C111.18959205 21.30148873 114.59428458 10.65060096 118 0 C133.51 0 149.02 0 165 0 C161.62489301 11.25035665 161.62489301 11.25035665 159.89379883 15.71704102 C159.30997437 17.2315963 159.30997437 17.2315963 158.71435547 18.77674866 C158.29943848 19.84171066 157.88452148 20.90667267 157.45703125 22.00390625 C156.79634644 23.71283302 156.79634644 23.71283302 156.12231445 25.45628357 C154.93550924 28.52366444 153.74535739 31.58971858 152.55353165 34.65515137 C151.3014912 37.87779057 150.05378652 41.1021082 148.80541992 44.32617188 C142.53816979 60.50536409 136.24318601 76.67384291 129.92260742 92.83227539 C125.46879225 104.22011511 121.04524092 115.61944486 116.63232422 127.02319336 C113.4464512 135.25525974 110.25163851 143.48384603 107.05419922 151.71142578 C105.79526527 154.9509299 104.53861786 158.19129149 103.28564453 161.43310547 C101.93016974 164.93874168 100.56068028 168.43875677 99.1875 171.9375 C98.83381348 172.85789062 98.48012695 173.77828125 98.11572266 174.7265625 C93.78983809 185.64895059 88.61685356 194.90633055 77.8125 200.25 C66.69196603 204.62914651 54.99005606 204.25604949 43.25 204.125 C41.66667238 204.11494198 40.08333852 204.10582116 38.5 204.09765625 C34.66638122 204.07760594 30.83365187 204.0384219 27 204 C27 193.77 27 183.54 27 173 C39.75 172.625 39.75 172.625 43.75292969 172.52197266 C44.79868164 172.4863623 45.84443359 172.45075195 46.921875 172.4140625 C47.99018555 172.3826416 49.05849609 172.3512207 50.15917969 172.31884766 C53.05969609 171.99329984 54.63432489 171.6854723 57 170 C60.06016399 166.13636446 61.81815927 161.93927291 62 157 C60.62140096 149.10414794 56.83610395 141.71817493 53.625 134.4375 C52.6880478 132.22377498 51.75576149 130.00807 50.82788086 127.79052734 C48.88641544 123.16261341 46.92392926 118.54448534 44.94580078 113.93212891 C40.757491 104.12833461 36.80910573 94.2291833 32.84793091 84.33203125 C30.69901366 78.97068144 28.53305281 73.61623945 26.3671875 68.26171875 C25.93513504 67.19287445 25.50308258 66.12403015 25.05793762 65.02279663 C22.22035696 58.00620381 19.3722219 50.99394734 16.51899719 43.98370361 C14.54683402 39.13775083 12.57932393 34.28990983 10.61178589 29.44207764 C9.66736671 27.11825322 8.72103694 24.79520432 7.7727356 22.47296143 C6.46233191 19.26378934 5.15822777 16.05212518 3.85546875 12.83984375 C3.46283844 11.88310257 3.07020813 10.92636139 2.66567993 9.94062805 C2.31218475 9.06553085 1.95868958 8.19043365 1.59448242 7.28881836 C1.28475998 6.52854843 0.97503754 5.7682785 0.65592957 4.98497009 C0 3 0 3 0 0 Z " fill="#423B3B" transform="translate(1156,127)"/>
<path d="M0 0 C0.99128906 0.77472656 1.98257813 1.54945313 3.00390625 2.34765625 C17.47811068 14.52848555 23.08439827 35.06264355 25.1875 53.0625 C25.27161133 53.78211914 25.35572266 54.50173828 25.44238281 55.24316406 C26.06742645 61.24737116 26 66.87495148 26 73 C-8.65 73 -43.3 73 -79 73 C-75.58249871 91.61056768 -75.58249871 91.61056768 -64.1171875 105.6640625 C-56.64676639 110.37787066 -48.67477014 110.93753454 -40 110 C-31.10402073 107.8152192 -25.11939929 104.35566035 -20.25 96.4375 C-19.65703125 95.48746094 -19.0640625 94.53742188 -18.453125 93.55859375 C-16.89479873 91.00694954 -16.89479873 91.00694954 -16 88 C-7.52343647 88.59138815 0.41075911 90.81723142 8.5625 93.0625 C9.96663087 93.44397095 11.3709267 93.82483524 12.77539062 94.20507812 C16.18552374 95.12973327 19.5933522 96.06257462 23 97 C17.80656414 113.53131335 7.99415667 125.61597131 -7.15625 134.04980469 C-26.272896 143.90176261 -51.65189183 145.36742457 -72.19921875 139.328125 C-82.15424645 136.02249639 -91.16838781 131.00723196 -99 124 C-100.12148438 123.01773438 -100.12148438 123.01773438 -101.265625 122.015625 C-113.04221169 111.04016666 -120.45277567 95.84610483 -123 80 C-123.11085938 79.32066406 -123.22171875 78.64132813 -123.3359375 77.94140625 C-126.46619469 54.88748506 -122.141238 31.70395759 -108.26953125 12.86328125 C-95.65113962 -3.0563075 -77.75045102 -11.94378012 -57.75 -14.625 C-37.13260315 -16.54455074 -16.51545334 -13.14552104 0 0 Z M-70.7265625 26.296875 C-75.09256163 33.22225293 -78 39.76740765 -78 48 C-57.87 48 -37.74 48 -17 48 C-19.19164647 37.04176763 -22.26565326 25.68189384 -32 19 C-45.45300936 12.16121679 -61.21895264 13.64874243 -70.7265625 26.296875 Z " fill="#423B3B" transform="translate(987,138)"/>
<path d="M0 0 C14.07380146 13.39480227 22.35831025 32.70164541 22.875 52.0703125 C23.1762914 76.65914507 19.26759835 97.78583225 1.8828125 116.296875 C-12.21038537 130.61416966 -30.0370017 137.65716194 -49.99536133 137.92358398 C-73.58666313 137.8852729 -92.20698196 133.05622665 -109.66015625 116.3046875 C-126.54218946 98.73241784 -130.79031771 77.22102345 -130.54296875 53.625 C-130.24955057 41.80990654 -127.55303724 31.16504309 -122.328125 20.54296875 C-121.62429688 19.08117187 -121.62429688 19.08117187 -120.90625 17.58984375 C-111.93788119 0.62985916 -96.42855151 -10.63903701 -78.328125 -16.45703125 C-50.73777664 -24.19922084 -21.81170424 -18.39207264 0 0 Z M-74.203125 20.2265625 C-84.15675491 30.54487282 -86.72983876 44.94673419 -86.640625 58.79296875 C-86.63571045 59.7053833 -86.6307959 60.61779785 -86.62573242 61.55786133 C-86.37867792 75.9338994 -83.20669916 89.04579871 -73.23046875 99.8515625 C-66.65551846 105.69746286 -59.22824243 106.90571992 -50.6875 106.8203125 C-42.91363443 106.17851662 -36.51121074 102.27426548 -31.328125 96.54296875 C-20.4341199 82.82071233 -19.87512888 64.27230725 -21.328125 47.54296875 C-23.00351789 35.61665346 -27.57963754 24.06434685 -37.328125 16.54296875 C-49.89528986 9.09324399 -63.34404918 10.47601734 -74.203125 20.2265625 Z " fill="#423B3B" transform="translate(654.328125,142.45703125)"/>
<path d="M0 0 C1.28922363 0.00563965 2.57844727 0.0112793 3.90673828 0.01708984 C25.98880475 0.29901232 46.19696585 6.72578781 62.625 22.0390625 C73.39207669 33.22913148 80.2043163 46.06495385 82.8125 61.3125 C78.8764449 62.31824701 74.93843326 63.31611005 71 64.3125 C69.88044922 64.59867187 68.76089844 64.88484375 67.60742188 65.1796875 C65.99770508 65.58574219 65.99770508 65.58574219 64.35546875 66 C63.36571045 66.25136719 62.37595215 66.50273437 61.35620117 66.76171875 C58.8125 67.3125 58.8125 67.3125 55.8125 67.3125 C55.46058594 66.14074219 55.10867188 64.96898437 54.74609375 63.76171875 C50.26496265 49.30317748 44.8372919 36.9620989 31.33203125 28.81640625 C16.84118314 21.24521895 -0.31049471 18.35797353 -16.1875 23.3125 C-17.05890625 23.580625 -17.9303125 23.84875 -18.828125 24.125 C-25.50938169 26.36452738 -31.36400419 29.35332471 -37.1875 33.3125 C-37.80238281 33.72886719 -38.41726562 34.14523438 -39.05078125 34.57421875 C-53.5377741 45.66426155 -60.91868626 66.3960439 -63.7421875 83.71484375 C-64.43307461 89.56600941 -64.41078108 95.4517564 -64.42773438 101.33666992 C-64.43736256 103.34631271 -64.46852598 105.355815 -64.5 107.36523438 C-64.58413989 128.81038901 -59.04090795 151.21842828 -44 167.125 C-29.58289748 180.73788319 -12.00817463 184.81243977 7.47265625 184.53515625 C14.40277519 184.28703895 21.07724653 182.88187945 27.8125 181.3125 C28.74964844 181.0959375 29.68679687 180.879375 30.65234375 180.65625 C40.61265731 178.01275446 51.66558646 172.64641743 57.86584473 164.15176392 C61.27783946 157.52257272 60.07362406 148.37157448 59.9375 141.1875 C59.89625 134.62875 59.855 128.07 59.8125 121.3125 C37.7025 121.3125 15.5925 121.3125 -7.1875 121.3125 C-7.1875 114.3825 -7.1875 107.4525 -7.1875 100.3125 C22.5125 100.3125 52.2125 100.3125 82.8125 100.3125 C82.9775 111.65625 83.1425 123 83.3125 134.6875 C83.38533203 138.25095215 83.45816406 141.8144043 83.53320312 145.48583984 C83.56933594 149.8840332 83.56933594 149.8840332 83.5760498 151.95205688 C83.58822459 153.37682161 83.61613316 154.80151099 83.65710449 156.22573853 C83.90581707 165.33790194 83.27586315 171.53799366 76.78375244 178.43406677 C76.13323914 179.05394974 75.48272583 179.6738327 74.8125 180.3125 C73.97203125 181.20324219 73.1315625 182.09398437 72.265625 183.01171875 C51.20773739 202.01608895 23.87239886 206.27564977 -3.59570312 205.44873047 C-28.53427188 204.13790517 -50.90456016 194.46711236 -68.3203125 176.421875 C-90.27011537 151.62502657 -93.64557126 119.00991043 -92.1875 87.3125 C-91.73198603 81.50281237 -90.70316968 75.93448128 -89.1875 70.3125 C-88.99414062 69.58949707 -88.80078125 68.86649414 -88.6015625 68.12158203 C-81.6536004 43.15502378 -67.46499421 23.04130827 -44.72045898 10.11352539 C-30.6938444 2.54501764 -15.79328387 -0.07181563 0 0 Z " fill="#FDFDFD" transform="translate(209.1875,77.6875)"/>
<path d="M0 0 C20.44153652 -0.41868207 40.82270716 4.90018374 56.12109375 19.1171875 C64.74020278 28.34809132 73.9921875 41.9615465 73.9921875 55.12109375 C68.9396889 56.26585993 63.88597388 57.40503256 58.83105469 58.5390625 C57.11195945 58.92555091 55.39320532 59.31355985 53.67480469 59.703125 C51.20335801 60.2631291 48.73073226 60.81763584 46.2578125 61.37109375 C45.49100159 61.54608398 44.72419067 61.72107422 43.93414307 61.90136719 C40.50543012 62.66362292 37.52470853 63.12109375 33.9921875 63.12109375 C33.70085937 62.13109375 33.40953125 61.14109375 33.109375 60.12109375 C29.90357659 49.63687188 26.18475405 41.63249506 16.9921875 35.12109375 C8.72643186 31.52728695 0.51828354 31.50982502 -8.0078125 34.12109375 C-15.53763541 37.50833384 -19.6658306 42.69333521 -23.0078125 50.12109375 C-25.55034708 56.90933511 -27.71410215 63.83952458 -28.0078125 71.12109375 C-28.059375 72.26964844 -28.1109375 73.41820312 -28.1640625 74.6015625 C-28.61877628 89.65576967 -26.73288441 104.44536308 -18.0078125 117.12109375 C-10.93652484 123.83574255 -2.85470529 125.59353268 6.6640625 125.44140625 C13.49519122 124.7839502 20.22416828 122.15400293 24.9921875 117.12109375 C29.48240745 110.70986107 32.0336492 104.51743949 34.9921875 97.12109375 C53.8021875 100.58609375 53.8021875 100.58609375 72.9921875 104.12109375 C72.21888695 111.08079873 71.5254719 115.19764978 68.4296875 121.05859375 C68.07108643 121.74953125 67.71248535 122.44046875 67.34301758 123.15234375 C58.97588968 138.8144069 46.08306688 148.57878431 29.3671875 154.37890625 C7.64060971 160.81600874 -17.16905378 158.82920733 -37.3203125 148.53710938 C-52.86215746 139.95639136 -64.35023219 124.93597439 -69.3046875 107.94140625 C-76.20720677 82.00466718 -74.35776093 54.72750945 -60.94921875 31.125 C-50.67955128 15.2349109 -34.58540954 6.28707534 -16.5390625 1.8671875 C-10.98005 0.69266163 -5.66346725 0.22800972 0 0 Z " fill="#423B3B" transform="translate(772.0078125,122.87890625)"/>
<path d="M0 0 C0 12.87 0 25.74 0 39 C9.24 39 18.48 39 28 39 C28 49.23 28 59.46 28 70 C18.76 70 9.52 70 0 70 C0.10805908 80.62245031 0.22014553 91.2448371 0.33933926 101.86716843 C0.39452319 106.79944386 0.44793599 111.73172526 0.49731445 116.6640625 C0.54502476 121.42328285 0.59737005 126.18243164 0.65294075 130.94156647 C0.67333408 132.7580309 0.69205213 134.57451494 0.70907402 136.3910141 C0.73318492 138.93359972 0.76323034 141.4760507 0.79467773 144.01855469 C0.80331093 145.14712387 0.80331093 145.14712387 0.81211853 146.29849243 C0.81654715 151.24740615 0.81654715 151.24740615 2 156 C4.6821281 157.34106405 6.88398032 157.21450419 9.8828125 157.31640625 C10.93355957 157.35451416 11.98430664 157.39262207 13.06689453 157.43188477 C14.40606934 157.47498779 15.74524414 157.51809082 17.125 157.5625 C21.37375 157.706875 25.6225 157.85125 30 158 C30 168.23 30 178.46 30 189 C24.09541307 189.06931472 18.19226906 189.12891335 12.28759766 189.16479492 C10.28396795 189.17977142 8.28037039 189.20015981 6.27685547 189.22631836 C-23.0957619 189.59988531 -23.0957619 189.59988531 -33 181 C-40.76131203 172.4590919 -42.16160261 164.08885986 -42.11352539 152.87353516 C-42.11367142 151.97533051 -42.11381744 151.07712585 -42.1139679 150.15170288 C-42.11327398 147.19746443 -42.10550605 144.24328987 -42.09765625 141.2890625 C-42.09579022 139.23497553 -42.09436719 137.18088811 -42.09336853 135.12680054 C-42.08955794 129.73129031 -42.07974012 124.33580717 -42.06866455 118.94030762 C-42.05841906 113.43026089 -42.05386419 107.92020977 -42.04882812 102.41015625 C-42.03811653 91.60675704 -42.02053155 80.80338502 -42 70 C-48.93 70 -55.86 70 -63 70 C-63 59.77 -63 49.54 -63 39 C-56.07 39 -49.14 39 -42 39 C-42 29.43 -42 19.86 -42 10 C-34.71077864 7.57025955 -27.59916829 5.56398777 -20.15063477 3.78295898 C-18.17240652 3.3088829 -16.19654957 2.82569258 -14.22070312 2.34179688 C-12.96580078 2.03951172 -11.71089844 1.73722656 -10.41796875 1.42578125 C-9.28125732 1.15161377 -8.1445459 0.87744629 -6.97338867 0.5949707 C-4 0 -4 0 0 0 Z " fill="#423B3B" transform="translate(1948,88)"/>
<path d="M0 0 C-0.99 11.88 -1.98 23.76 -3 36 C-6.3 35.67 -9.6 35.34 -13 35 C-27.12937876 34.2652723 -37.81601952 35.95797028 -48.6875 45.3125 C-61.86887411 60.63139424 -62.25849353 80.19972414 -62.4140625 99.4375 C-62.43284247 100.93921896 -62.4524205 102.44092814 -62.4727478 103.94262695 C-62.5233559 107.83530817 -62.56335559 111.72802334 -62.60089111 115.62084961 C-62.648546 120.323603 -62.70982804 125.02619752 -62.76873779 129.7288208 C-62.85607664 136.81914717 -62.92646271 143.90945676 -63 151 C-76.86 151 -90.72 151 -105 151 C-105 101.5 -105 52 -105 1 C-91.47 1 -77.94 1 -64 1 C-63.505 11.395 -63.505 11.395 -63 22 C-61.02 19.36 -59.04 16.72 -57 14 C-41.27424267 -3.18184597 -21.95472711 -5.06647549 0 0 Z " fill="#423B3B" transform="translate(1872,126)"/>
<path d="M0 0 C0.13246053 7.18426675 -0.25170321 14.22520368 -0.9375 21.375 C-1.02451172 22.34566406 -1.11152344 23.31632812 -1.20117188 24.31640625 C-1.57279375 28.30790044 -1.93470957 32.12570983 -3 36 C-4.175625 35.835 -5.35125 35.67 -6.5625 35.5 C-20.10308457 34.07579409 -33.44438322 33.9370155 -44.9375 42.1875 C-55.3831429 51.17917063 -59.46613291 63.68671788 -61 77 C-61.3107132 82.78648222 -61.3717981 88.56567844 -61.4140625 94.359375 C-61.43281507 96.00133187 -61.45239137 97.64327952 -61.4727478 99.28521729 C-61.52364386 103.56594353 -61.56349447 107.84670087 -61.60089111 112.12756348 C-61.648312 117.28575529 -61.70972408 122.44379797 -61.76873779 127.60186768 C-61.85643027 135.40118349 -61.92656545 143.20047831 -62 151 C-75.86 151 -89.72 151 -104 151 C-104 101.5 -104 52 -104 1 C-90.47 1 -76.94 1 -63 1 C-62.67 7.6 -62.34 14.2 -62 21 C-60.3603125 18.7725 -60.3603125 18.7725 -58.6875 16.5 C-50.22191852 5.99970859 -39.42692855 0.07711985 -26.3125 -2.8125 C-7.72881356 -3.86440678 -7.72881356 -3.86440678 0 0 Z " fill="#423B3B" transform="translate(1145,126)"/>
<path d="M0 0 C-0.54210941 12.06906735 -1.53990227 24.00735259 -3 36 C-3.54785156 35.9278125 -4.09570312 35.855625 -4.66015625 35.78125 C-18.65504405 34.14282411 -32.44351151 33.37179921 -44.4375 41.875 C-54.88280374 50.55064484 -59.1970107 61.80910273 -61 75 C-61.51799764 80.98378603 -61.48873548 86.99046702 -61.51171875 92.9921875 C-61.52860914 94.67612986 -61.54676505 96.36005995 -61.56611633 98.04397583 C-61.61315003 102.42661703 -61.64325841 106.80920849 -61.66955566 111.1920166 C-61.70490337 116.4771 -61.76178009 121.76199239 -61.81494904 127.04692078 C-61.89291456 135.03125442 -61.94393343 143.01534759 -62 151 C-75.86 151 -89.72 151 -104 151 C-104 101.5 -104 52 -104 1 C-90.8 1 -77.6 1 -64 1 C-63.505 11.395 -63.505 11.395 -63 22 C-62.030625 20.68 -61.06125 19.36 -60.0625 18 C-51.12320487 6.63406986 -40.16358111 -0.69180297 -25.6171875 -2.7578125 C-16.72528608 -3.58064517 -8.50203335 -2.83401112 0 0 Z " fill="#423B3B" transform="translate(516,126)"/>
</svg>
