<?xml version="1.0" encoding="UTF-8"?>
<svg version="1.1" xmlns="http://www.w3.org/2000/svg" width="2000" height="2000">
<path d="M0 0 C0.89313904 0.08485657 1.78627808 0.16971313 2.70648193 0.25714111 C53.79516717 5.12342962 104.33356397 13.86527368 154.0635376 26.5090332 C155.93899712 26.98453345 157.81591293 27.45427836 159.69287109 27.92382812 C206.68706633 39.72814788 252.47790897 55.95825725 297 75 C298.76730469 75.75531006 298.76730469 75.75531006 300.5703125 76.52587891 C388.71288683 114.45504703 470.44437762 165.7044317 548.40087891 231.63916016 C550.05849996 233.04978302 551.72229828 234.45287789 553.38671875 235.85546875 C561.42445191 242.65419269 569.16261317 249.72539443 576.8125 256.95605469 C578.95836436 258.9610967 581.12760556 260.93910311 583.29829407 262.91717529 C591.3170939 270.24739148 599.02521216 277.87234303 606.6953125 285.56494141 C608.88948502 287.76452072 611.08901723 289.95864007 613.2890625 292.15234375 C614.71125856 293.5752 616.13314471 294.99836609 617.5546875 296.421875 C618.19961151 297.06477478 618.84453552 297.70767456 619.50900269 298.37005615 C623.29398126 302.1743342 626.89756733 306.08736938 630.39556885 310.15745544 C633.12863938 313.29614059 636.01244563 316.2924107 638.875 319.3125 C643.79493773 324.5394866 648.45374682 329.85862862 652.93359375 335.46875 C655.00112782 338.00138153 657.16113341 340.4073116 659.375 342.8125 C663.43626167 347.26929324 667.15413522 351.92962968 670.84545898 356.69116211 C673.79644135 360.4915842 676.82513535 364.2040058 679.9375 367.875 C685.34507705 374.32151311 690.37062813 381.02668672 695.36865234 387.79345703 C697.06971021 390.09428927 698.77865023 392.38912625 700.48828125 394.68359375 C707.88799654 404.63937169 715.0657909 414.71501419 722 425 C722.40105957 425.59135742 722.80211914 426.18271484 723.21533203 426.79199219 C734.32824982 443.1866114 744.98386143 459.91262397 755 477 C755.6192334 478.0513916 755.6192334 478.0513916 756.25097656 479.12402344 C763.78286574 491.92990756 770.99976044 504.89627238 778 518 C778.53995605 519.00998047 779.07991211 520.01996094 779.63623047 521.06054688 C817.47085896 592.15650861 845.06872991 667.66098538 876 800 C876.14268311 800.81158569 876.28536621 801.62317139 876.43237305 802.45935059 C881.29871808 830.27063168 885.09898909 858.16767023 887.74285889 886.27789307 C887.98919449 888.88561245 888.24448005 891.49233671 888.50048828 894.09912109 C893.80183229 949.32504983 893.67514346 1007.21034534 888.25323486 1062.41851807 C887.98848223 1065.11741238 887.73391898 1067.81715802 887.47998047 1070.51708984 C878.62568254 1163.40179639 856.66314085 1254.4518248 760.64013672 1467.21191406 C759.12695931 1469.78418052 757.63711175 1472.36774548 756.16015625 1474.9609375 C727.84329141 1524.67265234 693.44496702 1570.93086773 656.36083984 1614.40087891 C654.95021698 1616.05849996 653.54712211 1617.72229828 652.14453125 1619.38671875 C645.34580731 1627.42445191 638.27460557 1635.16261317 631.04394531 1642.8125 C629.0389033 1644.95836436 627.06089689 1647.12760556 625.08282471 1649.29829407 C617.75260852 1657.3170939 610.12765697 1665.02521216 602.43505859 1672.6953125 C600.23547928 1674.88948502 598.04135993 1677.08901723 595.84765625 1679.2890625 C594.4248 1680.71125856 593.00163391 1682.13314471 591.578125 1683.5546875 C590.93522522 1684.19961151 590.29232544 1684.84453552 589.62994385 1685.50900269 C585.8256658 1689.29398126 581.91263062 1692.89756733 577.84254456 1696.39556885 C574.70385941 1699.12863938 571.7075893 1702.01244563 568.6875 1704.875 C563.4605134 1709.79493773 558.14137138 1714.45374682 552.53125 1718.93359375 C549.99861847 1721.00112782 547.5926884 1723.16113341 545.1875 1725.375 C540.73070676 1729.43626167 536.07037032 1733.15413522 531.30883789 1736.84545898 C527.5084158 1739.79644135 523.7959942 1742.82513535 520.125 1745.9375 C513.67848689 1751.34507705 506.97331328 1756.37062813 500.20654297 1761.36865234 C497.90571073 1763.06971021 495.61087375 1764.77865023 493.31640625 1766.48828125 C483.36062831 1773.88799654 473.28498581 1781.0657909 463 1788 C462.40864258 1788.40105957 461.81728516 1788.80211914 461.20800781 1789.21533203 C444.8133886 1800.32824982 428.08737603 1810.98386143 411 1821 C409.9486084 1821.6192334 409.9486084 1821.6192334 408.87597656 1822.25097656 C396.07009244 1829.78286574 383.10372762 1836.99976044 370 1844 C368.99001953 1844.53995605 367.98003906 1845.07991211 366.93945312 1845.63623047 C317.3449846 1872.02856339 265.55691644 1893.4257098 212.11279297 1910.66699219 C208.48451665 1911.83859361 204.86877608 1913.04542572 201.25390625 1914.2578125 C164.48231032 1926.36434955 126.13531703 1935.36021278 88 1942 C87.19268433 1942.1416156 86.38536865 1942.2832312 85.55358887 1942.42913818 C57.73680716 1947.29266204 29.83741838 1951.09851048 1.72210693 1953.74285889 C-0.88561245 1953.98919449 -3.49233671 1954.24448005 -6.09912109 1954.50048828 C-62.21282169 1959.88705284 -120.92140027 1959.59840051 -177 1954 C-177.89547546 1953.91278687 -178.79095093 1953.82557373 -179.71356201 1953.73571777 C-260.90968496 1945.81266965 -341.13483346 1928.91363237 -590.95214844 1819.83691406 C-593.82735668 1818.10405066 -596.71189287 1816.38829887 -599.6015625 1814.6796875 C-609.04739406 1809.08424049 -618.29767779 1803.28867234 -627.36962891 1797.10546875 C-629.79275389 1795.46247535 -632.24219778 1793.8597387 -634.6875 1792.25 C-666.72394533 1770.86374025 -697.10911881 1747.34954648 -726.40087891 1722.36083984 C-728.05849996 1720.95021698 -729.72229828 1719.54712211 -731.38671875 1718.14453125 C-739.42445191 1711.34580731 -747.16261317 1704.27460557 -754.8125 1697.04394531 C-756.95836436 1695.0389033 -759.12760556 1693.06089689 -761.29829407 1691.08282471 C-769.3170939 1683.75260852 -777.02521216 1676.12765697 -784.6953125 1668.43505859 C-786.88948502 1666.23547928 -789.08901723 1664.04135993 -791.2890625 1661.84765625 C-792.71125856 1660.4248 -794.13314471 1659.00163391 -795.5546875 1657.578125 C-796.52207352 1656.61377533 -796.52207352 1656.61377533 -797.50900269 1655.62994385 C-801.29398126 1651.8256658 -804.89756733 1647.91263062 -808.39556885 1643.84254456 C-811.12863938 1640.70385941 -814.01244563 1637.7075893 -816.875 1634.6875 C-821.79493773 1629.4605134 -826.45374682 1624.14137138 -830.93359375 1618.53125 C-833.00112782 1615.99861847 -835.16113341 1613.5926884 -837.375 1611.1875 C-841.43626167 1606.73070676 -845.15413522 1602.07037032 -848.84545898 1597.30883789 C-851.79644135 1593.5084158 -854.82513535 1589.7959942 -857.9375 1586.125 C-863.34507705 1579.67848689 -868.37062813 1572.97331328 -873.36865234 1566.20654297 C-875.06971021 1563.90571073 -876.77865023 1561.61087375 -878.48828125 1559.31640625 C-885.88799654 1549.36062831 -893.0657909 1539.28498581 -900 1529 C-900.60158936 1528.11296387 -900.60158936 1528.11296387 -901.21533203 1527.20800781 C-912.32776201 1510.81410825 -922.99073679 1494.09018404 -933 1477 C-933.51578613 1476.12553223 -934.03157227 1475.25106445 -934.56298828 1474.35009766 C-977.0742937 1402.16404487 -1009.94350498 1325.17534879 -1069.16796875 999.8671875 C-1069.17120262 998.09392269 -1069.17456804 996.32065812 -1069.17805481 994.5473938 C-1069.18398077 990.85499456 -1069.18590181 987.16261848 -1069.18530273 983.47021484 C-1069.185222 979.7650865 -1069.19209281 976.06008318 -1069.20581055 972.35498047 C-1069.29269788 948.49090273 -1068.79973576 924.80019515 -1067 901 C-1066.88998154 899.51675232 -1066.88998154 899.51675232 -1066.77774048 898.00354004 C-1066.35880323 892.47404402 -1065.86585288 886.95507521 -1065.3125 881.4375 C-1065.23140991 880.61701172 -1065.15031982 879.79652344 -1065.06677246 878.95117188 C-1061.40401173 842.32011402 -1055.67038737 805.99929824 -1048 770 C-1047.75796844 768.85812225 -1047.75796844 768.85812225 -1047.51104736 767.69317627 C-1034.63224887 707.06668376 -1015.36175648 647.96098063 -991 591 C-990.24468994 589.23269531 -990.24468994 589.23269531 -989.47412109 587.4296875 C-951.54495297 499.28711317 -900.2955683 417.55562238 -834.36083984 339.59912109 C-832.95021698 337.94150004 -831.54712211 336.27770172 -830.14453125 334.61328125 C-823.34580731 326.57554809 -816.27460557 318.83738683 -809.04394531 311.1875 C-807.0389033 309.04163564 -805.06089689 306.87239444 -803.08282471 304.70170593 C-795.75260852 296.6829061 -788.12765697 288.97478784 -780.43505859 281.3046875 C-778.23547928 279.11051498 -776.04135993 276.91098277 -773.84765625 274.7109375 C-772.4248 273.28874144 -771.00163391 271.86685529 -769.578125 270.4453125 C-768.93522522 269.80038849 -768.29232544 269.15546448 -767.62994385 268.49099731 C-763.8256658 264.70601874 -759.91263062 261.10243267 -755.84254456 257.60443115 C-752.70385941 254.87136062 -749.7075893 251.98755437 -746.6875 249.125 C-741.4605134 244.20506227 -736.14137138 239.54625318 -730.53125 235.06640625 C-727.99861847 232.99887218 -725.5926884 230.83886659 -723.1875 228.625 C-718.73070676 224.56373833 -714.07037032 220.84586478 -709.30883789 217.15454102 C-705.5084158 214.20355865 -701.7959942 211.17486465 -698.125 208.0625 C-691.67848689 202.65492295 -684.97331328 197.62937187 -678.20654297 192.63134766 C-675.90571073 190.93028979 -673.61087375 189.22134977 -671.31640625 187.51171875 C-661.36062831 180.11200346 -651.28498581 172.9342091 -641 166 C-640.40864258 165.59894043 -639.81728516 165.19788086 -639.20800781 164.78466797 C-622.8133886 153.67175018 -606.08737603 143.01613857 -589 133 C-588.29907227 132.58717773 -587.59814453 132.17435547 -586.87597656 131.74902344 C-574.07009244 124.21713426 -561.10372762 117.00023956 -548 110 C-546.4850293 109.19006592 -546.4850293 109.19006592 -544.93945312 108.36376953 C-493.75754182 81.12665856 -440.21873138 59.29648589 -385.01934814 41.64660645 C-383.1287332 41.04122108 -381.23983766 40.43047337 -379.35107422 39.81933594 C-342.40908248 27.94643189 -304.22162065 18.69097253 -266 12 C-265.18841431 11.85731689 -264.37682861 11.71463379 -263.54064941 11.56762695 C-235.72936832 6.70128192 -207.83232977 2.90101091 -179.72210693 0.25714111 C-177.11438755 0.01080551 -174.50766329 -0.24448005 -171.90087891 -0.50048828 C-115.42653707 -5.92163905 -56.45420809 -5.50465346 0 0 Z " fill="#4FBF8B" transform="translate(1089,23)"/>
<path d="M0 0 C2.6500875 0.58833865 5.31370809 1.06692405 7.98681641 1.53759766 C69.29494245 12.37366455 131.24819215 39.91614371 180.01904297 78.44824219 C180.82341797 79.0734375 181.62779297 79.69863281 182.45654297 80.34277344 C194.47290545 89.79795609 205.77504794 99.86672313 216.54370117 110.7121582 C218.34120101 112.52045826 220.14926613 114.31770196 221.95849609 116.11425781 C228.77160823 122.91935131 235.05701073 129.87699921 241.01904297 137.44824219 C241.99498713 138.62259006 242.97486345 139.79369313 243.96044922 140.95996094 C257.38412339 157.10760722 268.7015346 175.02442966 278.86669922 193.36962891 C279.92559535 195.2796801 281.00187235 197.17879762 282.08154297 199.07714844 C298.84569794 229.32698453 321.01904297 275.18799222 321.01904297 310.44824219 C319.95919189 310.68422119 318.89934082 310.9202002 317.80737305 311.16333008 C291.87054596 316.93445552 291.87054596 316.93445552 266.01904297 323.07324219 C255.47428683 325.65923045 244.89468979 328.03274603 234.28079224 330.31286621 C222.04552023 332.94562768 209.88519032 335.84890434 197.74072266 338.87182617 C197.0743428 339.03646866 196.40796295 339.20111115 195.72138977 339.3707428 C193.92529326 339.81480889 192.13020807 340.26295991 190.33520508 340.71142578 C186.90886427 341.47272274 183.49852117 341.99594592 180.01904297 342.44824219 C179.82383057 341.60044189 179.62861816 340.7526416 179.42749023 339.87915039 C167.66134692 289.15407504 151.74548015 237.26294752 118.01904297 196.44824219 C117.23787109 195.46597656 116.45669922 194.48371094 115.65185547 193.47167969 C111.38156603 188.13741241 106.96030379 183.16376013 102.01904297 178.44824219 C97.01904297 173.44824219 97.01904297 173.44824219 95.16748047 171.49121094 C70.59396171 145.97943055 36.33067079 128.24757328 3.39453125 116.31640625 C1.37083386 115.57681037 -0.63708574 114.79427461 -2.64111328 114.00292969 C-21.62914023 106.66612219 -42.7476869 102.65089022 -62.91845703 100.32324219 C-63.57322021 100.24750977 -64.2279834 100.17177734 -64.90258789 100.09375 C-80.17913774 98.48011993 -95.50816731 98.20921285 -110.85595703 98.19824219 C-111.84340912 98.19723511 -112.83086121 98.19622803 -113.84823608 98.19519043 C-129.7711424 98.20612417 -145.22167548 99.03444556 -160.98095703 101.44824219 C-162.94957557 101.71873194 -164.91832602 101.98826338 -166.88720703 102.25683594 C-191.75031705 105.83865268 -215.75790539 112.97638843 -238.98095703 122.44824219 C-239.71378906 122.74021484 -240.44662109 123.0321875 -241.20166016 123.33300781 C-285.78777071 141.17596896 -328.8444829 174.31902912 -357.98095703 212.44824219 C-359.03993535 213.77033562 -360.10135159 215.09047821 -361.16455078 216.40917969 C-416.53551127 285.57474168 -442.7179958 374.88081308 -451.66845703 466.01074219 C-451.78801758 467.25750732 -451.90757812 468.50427246 -452.03076172 469.78881836 C-452.38200088 473.67306538 -452.69868108 477.55847383 -452.98095703 481.44824219 C-453.05514359 482.46661163 -453.05514359 482.46661163 -453.13082886 483.5055542 C-454.23966198 499.56691783 -454.16841393 515.66245547 -454.16625977 531.75341797 C-454.16617881 534.8690373 -454.1730887 537.98450863 -454.18676758 541.10009766 C-454.29532853 566.26007927 -453.35333492 591.14985816 -450.28588867 616.15307617 C-450.03809984 618.17955466 -449.80296097 620.20725174 -449.56884766 622.23535156 C-439.37663073 708.6313535 -409.29234388 797.92876218 -325.35595703 883.26074219 C-323.56651072 884.65942086 -321.77469524 886.05507192 -319.98095703 887.44824219 C-318.8429263 888.38387375 -317.70768643 889.32290641 -316.57470703 890.26464844 C-265.77649016 932.2342801 -199.75301769 951.86729054 -134.87158203 956.2434082 C-132.92225759 956.38154023 -130.9742012 956.53871371 -129.02783203 956.71362305 C-117.19392567 957.71982822 -105.34969581 957.64834055 -93.48095703 957.63574219 C-92.34513184 957.6348056 -91.20930664 957.63386902 -90.0390625 957.63290405 C-51.75976352 957.56452891 -14.36514833 953.82975127 23.01904297 945.44824219 C23.96086426 945.24150879 24.90268555 945.03477539 25.87304688 944.82177734 C72.19133512 934.50856615 116.43286574 916.11860112 153.01904297 885.44824219 C154.54464844 884.19914062 154.54464844 884.19914062 156.10107422 882.92480469 C169.20864651 872.06157522 181.87677193 860.11414909 192.29248047 846.61230469 C194.01904297 844.44824219 194.01904297 844.44824219 196.09451675 842.85081863 C198.86572557 839.39124455 198.57816769 836.08842301 198.5380249 831.84295654 C198.54552261 830.96777374 198.55302032 830.09259094 198.56074524 829.19088745 C198.58111752 826.24355708 198.57287196 823.29698994 198.56494141 820.34960938 C198.57373668 818.20648062 198.58428201 816.06335844 198.59643936 813.92024612 C198.62419539 808.17306543 198.62795001 802.42610157 198.62680054 796.67886353 C198.62933941 791.2889263 198.65343333 785.89917044 198.67578125 780.50927734 C198.72857025 764.73899 198.74668014 748.96860202 198.76904297 733.19824219 C198.85154297 697.97074219 198.93404297 662.74324219 199.01904297 626.44824219 C83.51904297 626.44824219 -31.98095703 626.44824219 -150.98095703 626.44824219 C-150.98095703 590.14824219 -150.98095703 553.84824219 -150.98095703 516.44824219 C4.44904297 516.44824219 159.87904297 516.44824219 320.01904297 516.44824219 C320.30779297 576.28136719 320.59654297 636.11449219 320.89404297 697.76074219 C321.02149902 716.64333252 321.14895508 735.52592285 321.28027344 754.98071289 C321.34350586 778.06384277 321.34350586 778.06384277 321.35525513 788.87492371 C321.368283 796.41554698 321.41951281 803.95470928 321.49710083 811.49491882 C321.58656724 820.20246017 321.62666668 828.9086062 321.60727227 837.61661 C321.59887924 842.06665707 321.61165772 846.51359115 321.6880548 850.96305907 C322.21759076 883.34481916 322.21759076 883.34481916 309.48343086 896.9720335 C308.88977486 897.56428105 308.29611886 898.15652859 307.68447328 898.76672304 C305.34337344 901.130439 303.36667516 903.69374098 301.33154297 906.32324219 C299.89910628 908.03582332 298.46144801 909.74404833 297.01904297 911.44824219 C296.16165631 912.47898025 295.30491792 913.51025779 294.44873047 914.54199219 C280.50132783 931.28088543 265.59054852 948.10978777 248.39794922 961.56152344 C246.14269674 963.35017195 244.05862602 965.23386785 241.95654297 967.19824219 C219.81482532 987.0507983 192.51130726 1001.6467 165.91699219 1014.52587891 C164.01932336 1015.44810592 162.13067752 1016.38727366 160.24169922 1017.32714844 C121.31923221 1036.43586741 79.28737215 1048.40848723 36.6574707 1055.49456787 C33.03769557 1056.09738433 29.4353767 1056.75333181 25.83544922 1057.46386719 C17.81921715 1058.9355329 9.69458972 1059.72315006 1.59887695 1060.62548828 C-1.24923992 1060.94330803 -4.09656743 1061.26755329 -6.94384766 1061.59277344 C-11.69622934 1062.13235954 -16.45094888 1062.64657304 -21.20733643 1063.14953613 C-23.83664392 1063.43270034 -26.46299132 1063.73606832 -29.08984375 1064.04101562 C-44.67273604 1065.75441008 -60.24489534 1065.75595952 -75.89990234 1065.70898438 C-79.69326799 1065.69767235 -83.48635035 1065.70432321 -87.279706 1065.71585941 C-112.81998625 1065.7817528 -138.139427 1064.50687038 -163.5456543 1061.75317383 C-165.84420571 1061.5052688 -168.14386431 1061.27034357 -170.44384766 1061.03613281 C-180.71994914 1059.96200389 -190.83212027 1058.37628535 -200.98095703 1056.44824219 C-202.05563232 1056.24642334 -203.13030762 1056.04460449 -204.23754883 1055.83666992 C-211.50094139 1054.45136826 -218.74346927 1052.96246453 -225.98095703 1051.44824219 C-227.03492676 1051.22797363 -228.08889648 1051.00770508 -229.17480469 1050.78076172 C-288.46740928 1038.20243534 -347.31460718 1013.97913886 -395.98095703 977.44824219 C-397.33086451 976.4477658 -398.68114331 975.44779029 -400.03173828 974.44824219 C-425.10527623 955.83052035 -449.74264676 935.35865824 -469.98095703 911.44824219 C-470.89262736 910.39911685 -471.80549781 909.35103377 -472.71923828 908.30371094 C-513.6605923 861.23305537 -543.20241826 805.40449681 -562.98095703 746.44824219 C-563.3402832 745.37735352 -563.69960938 744.30646484 -564.06982422 743.203125 C-578.63190792 699.43634624 -588.36458577 654.35375094 -592.98095703 608.44824219 C-593.12742676 607.02825928 -593.12742676 607.02825928 -593.27685547 605.57958984 C-596.03813179 578.33406706 -596.22403324 550.99409169 -596.23095703 523.63574219 C-596.23139889 522.83091274 -596.23184074 522.0260833 -596.23229599 521.19686508 C-596.23898307 497.89203109 -596.10582615 474.71982305 -593.24066162 451.5581665 C-592.96162462 449.2911794 -592.69455142 447.02296548 -592.42871094 444.75439453 C-591.11395502 433.6274259 -589.61832235 422.53214183 -587.98095703 411.44824219 C-587.79307617 410.17078125 -587.60519531 408.89332031 -587.41162109 407.57714844 C-579.52411998 355.33124086 -563.90146919 304.47585642 -541.98095703 256.44824219 C-541.55347168 255.50819336 -541.12598633 254.56814453 -540.68554688 253.59960938 C-521.74969483 212.24803029 -496.45174439 172.7154413 -465.53564453 139.24902344 C-463.58242908 137.1076542 -461.68503827 134.94285307 -459.79736328 132.74511719 C-455.43128932 127.74075244 -450.74833673 123.06944463 -446.04345703 118.38574219 C-444.76051758 117.09700195 -444.76051758 117.09700195 -443.45166016 115.78222656 C-438.45696141 110.7951475 -433.35211212 106.02568855 -427.98095703 101.44824219 C-427.01673828 100.60261719 -426.05251953 99.75699219 -425.05908203 98.88574219 C-375.46001425 56.13737438 -315.87091451 24.52310523 -252.54345703 7.94824219 C-251.81060486 7.75503387 -251.07775269 7.56182556 -250.32269287 7.36276245 C-171.33669812 -13.41485845 -80.06972727 -18.61559799 0 0 Z " fill="#FEFEFE" transform="translate(1130.98095703125,416.5517578125)"/>
</svg>
